<!-- La bande — joie.
     Grammaire des icônes de l’accueil (grille 24, trait 2,3). Les éléments arrivent,
     un seul mouvement joué deux fois, puis image fixe. Servie en <img>. -->
<svg viewBox="0 0 56 24" xmlns="http://www.w3.org/2000/svg"><style>
path,circle,rect,ellipse{fill:none;stroke:#1D1D1B;stroke-width:2.3;stroke-linecap:round;stroke-linejoin:round}
.c{stroke:#DC5D45}.cf{fill:#DC5D45;stroke:#DC5D45}.f{fill:#1D1D1B;stroke:none}
.pop{opacity:0;transform-box:fill-box;transform-origin:center;animation:pop .45s cubic-bezier(.3,1.7,.6,1) both}
.bas{transform-origin:center bottom}
@keyframes pop{0%{opacity:0;transform:scale(.2)}100%{opacity:1;transform:scale(1)}}
@keyframes bat{50%{transform:scale(1.25)}}
@keyframes saute{50%{transform:translateY(-2.5px)}}
@keyframes vibre{20%{transform:rotate(-10deg)}40%{transform:rotate(10deg)}60%{transform:rotate(-8deg)}80%{transform:rotate(6deg)}}
@keyframes hesite{25%{transform:rotate(-15deg)}75%{transform:rotate(15deg)}}
@keyframes sort{to{opacity:0;transform:scale(.3)}}
.p0{animation:pop .45s cubic-bezier(.3,1.7,.6,1) 0.60s both,saute .45s ease-in-out 1.90s 2}.p1{animation:pop .45s cubic-bezier(.3,1.7,.6,1) 0.85s both,saute .45s ease-in-out 1.98s 2}.p2{animation:pop .45s cubic-bezier(.3,1.7,.6,1) 1.10s both,saute .45s ease-in-out 2.06s 2}
@media (prefers-reduced-motion:reduce){*{animation-duration:1ms!important;animation-delay:0s!important;animation-iteration-count:1!important}}
</style>
<g class="pop" style="animation-delay:.1s"><rect x="3.5" y="5" width="17" height="15.5" rx="1"/><path d="M3.8 9.8c4.4-.2 9-.1 16.5 0"/><path d="M8 3v3.6M16 3v3.6"/></g><path class="c pop" style="animation-delay:.4s" d="M8.3 14.8l2.6 2.6 4.8-5.2"/><g transform="translate(25 0)"><g class="pop bas p0" style=""><circle cx="4.5" cy="7.5" r="2.4"/><path d="M0 20v-2.8c0-2 1.8-3.5 4.5-3.5s4.5 1.5 4.5 3.5v2.8"/></g></g><g transform="translate(34.5 0)"><g class="pop bas p1" style=""><circle cx="4.5" cy="7.5" r="2.4"/><path d="M0 20v-2.8c0-2 1.8-3.5 4.5-3.5s4.5 1.5 4.5 3.5v2.8"/></g></g><g transform="translate(44 0)"><g class="pop bas p2" style=""><circle cx="4.5" cy="7.5" r="2.4"/><path d="M0 20v-2.8c0-2 1.8-3.5 4.5-3.5s4.5 1.5 4.5 3.5v2.8"/></g></g>
</svg>
